<svg width="16" height="16" viewBox="0 0 16 16" fill="none" xmlns="http://www.w3.org/2000/svg">
<path d="M11 8.2999L2.59999 8.7999C2.39999 8.7999 2.29999 8.8999 2.29999 8.9999L1.09999 13.0999C0.899993 13.5999 1.09999 14.1999 1.49999 14.5999C1.69999 14.8999 1.99999 14.9999 2.39999 14.9999C2.59999 14.9999 2.79999 14.9999 2.99999 14.8999L14.2 9.2999C14.8 8.9999 15.1 8.3999 15 7.7999C14.9 7.3999 14.6 6.9999 14.2 6.7999L2.99999 1.0999C2.49999 0.899901 1.89999 0.999901 1.49999 1.2999C0.999992 1.6999 0.899993 2.2999 1.09999 2.8999L2.29999 6.9999C2.29999 7.0999 2.49999 7.1999 2.59999 7.1999L11 7.6999C11 7.6999 11.3 7.6999 11.3 7.9999C11.3 8.2999 11 8.2999 11 8.2999Z" fill="white"/>
</svg>
