<svg width="22" height="22" viewBox="0 0 22 22" fill="none" xmlns="http://www.w3.org/2000/svg">
<path d="M11.0001 12.9447L2.44467 21.5001C2.17606 21.7687 1.85189 21.903 1.47217 21.903C1.09272 21.903 0.768696 21.7687 0.500085 21.5001C0.231473 21.2315 0.097168 20.9074 0.097168 20.528C0.097168 20.1483 0.231473 19.8241 0.500085 19.5555L9.0555 11.0001L0.500085 2.44467C0.231473 2.17606 0.097168 1.85189 0.097168 1.47217C0.097168 1.09272 0.231473 0.768695 0.500085 0.500084C0.768696 0.231473 1.09272 0.097168 1.47217 0.097168C1.85189 0.097168 2.17606 0.231473 2.44467 0.500084L11.0001 9.0555L19.5555 0.500084C19.8241 0.231473 20.1483 0.097168 20.528 0.097168C20.9074 0.097168 21.2315 0.231473 21.5001 0.500084C21.7687 0.768695 21.903 1.09272 21.903 1.47217C21.903 1.85189 21.7687 2.17606 21.5001 2.44467L12.9447 11.0001L21.5001 19.5555C21.7687 19.8241 21.903 20.1483 21.903 20.528C21.903 20.9074 21.7687 21.2315 21.5001 21.5001C21.2315 21.7687 20.9074 21.903 20.528 21.903C20.1483 21.903 19.8241 21.7687 19.5555 21.5001L11.0001 12.9447Z" fill="white"/>
</svg>
