<svg width="8" height="8" viewBox="0 0 8 8" fill="none" xmlns="http://www.w3.org/2000/svg">
<path d="M4 2.44845L6.96667 0.141312C7.18533 -0.0269166 7.41222 -0.0449412 7.64733 0.0872386C7.88244 0.219418 8 0.430065 8 0.719178C8 0.834775 7.97778 0.944605 7.93333 1.04867C7.88889 1.15273 7.82222 1.2348 7.73333 1.29488L4 4.1788L0.266667 1.29488C0.183 1.2366 0.117666 1.15501 0.0706663 1.05011C0.0235552 0.945326 4.40353e-07 0.834655 4.45448e-07 0.718096C4.58054e-07 0.429704 0.117556 0.219418 0.352667 0.0872383C0.587778 -0.0449415 0.814667 -0.0269169 1.03333 0.141312L4 2.44845ZM4 6.26965L6.96667 3.98053C7.18533 3.8123 7.41222 3.79428 7.64733 3.92646C7.88244 4.05864 8 4.26977 8 4.55984C8 4.6758 7.975 4.78599 7.925 4.89041C7.875 4.99483 7.80556 5.07606 7.71667 5.1341L4 8L0.266667 5.1341C0.183 5.07582 0.117666 4.99423 0.0706661 4.88933C0.0235551 4.78455 2.72536e-07 4.67388 2.7763e-07 4.55732C2.90236e-07 4.26893 0.117555 4.05864 0.352667 3.92646C0.587777 3.79428 0.814667 3.8123 1.03333 3.98053L4 6.26965Z" fill="#444444"/>
</svg>
