<svg width="17" height="17" viewBox="0 0 17 17" fill="none" xmlns="http://www.w3.org/2000/svg">
<path d="M7 11.0626L2.08333 15.9792C1.93056 16.132 1.75694 16.2049 1.5625 16.198C1.36806 16.1911 1.19444 16.1112 1.04167 15.9584C0.888889 15.8056 0.8125 15.6286 0.8125 15.4272C0.8125 15.2258 0.888611 15.049 1.04083 14.8967L5.9375 10.0001H3.24729C3.03562 10.0001 2.85812 9.92862 2.71479 9.78571C2.5716 9.64279 2.5 9.46571 2.5 9.25446C2.5 9.04321 2.57181 8.86467 2.71542 8.71883C2.85903 8.573 3.03694 8.50008 3.24917 8.50008H7.74417C7.95639 8.50008 8.13542 8.57189 8.28125 8.7155C8.42708 8.85911 8.5 9.03703 8.5 9.24925V13.7442C8.5 13.9565 8.42854 14.1355 8.28562 14.2813C8.14271 14.4272 7.96562 14.5001 7.75437 14.5001C7.54313 14.5001 7.36458 14.4285 7.21875 14.2853C7.07292 14.142 7 13.9645 7 13.7528V11.0626ZM11.0625 7.00008H13.7527C13.9645 7.00008 14.142 7.07154 14.2852 7.21446C14.4284 7.35737 14.5 7.53446 14.5 7.74571C14.5 7.95696 14.4282 8.1355 14.2846 8.28133C14.141 8.42717 13.9631 8.50008 13.7508 8.50008H9.25583C9.04361 8.50008 8.86458 8.42828 8.71875 8.28467C8.57292 8.14105 8.5 7.96314 8.5 7.75091V3.25592C8.5 3.04369 8.57146 2.86466 8.71438 2.71883C8.85729 2.573 9.03438 2.50008 9.24562 2.50008C9.45687 2.50008 9.63542 2.57168 9.78125 2.71487C9.92708 2.85807 10 3.03557 10 3.24737V5.93758L14.9167 1.02091C15.0694 0.868137 15.2465 0.791748 15.4479 0.791748C15.6493 0.791748 15.8264 0.868137 15.9792 1.02091C16.1319 1.17369 16.2083 1.35078 16.2083 1.55216C16.2083 1.75355 16.1319 1.93064 15.9792 2.08341L11.0625 7.00008Z" fill="white"/>
</svg>
