<svg width="11" height="11" viewBox="0 0 11 11" fill="none" xmlns="http://www.w3.org/2000/svg">
<path d="M6.70732 0C6.7252 0 6.73862 0 6.74756 0C6.7565 0 6.76098 0 6.76098 0H10.4366H11V0.563415V4.23902C11 4.4 10.9463 4.53415 10.839 4.64146C10.7317 4.74878 10.602 4.80244 10.45 4.80244C10.298 4.80244 10.1683 4.74878 10.061 4.64146C9.95366 4.53415 9.9 4.4 9.9 4.23902V1.87805L1.87805 9.9H4.23902C4.4 9.9 4.53415 9.95366 4.64146 10.061C4.74878 10.1683 4.80244 10.298 4.80244 10.45C4.80244 10.602 4.74878 10.7317 4.64146 10.839C4.53415 10.9463 4.4 11 4.23902 11H0.563415H0V10.4366V6.76098C0 6.6 0.0536585 6.46585 0.160976 6.35854C0.268293 6.25122 0.393496 6.19756 0.536585 6.19756H0.563415C0.706504 6.19756 0.831707 6.25122 0.939024 6.35854C1.04634 6.46585 1.1 6.6 1.1 6.76098V9.12195L9.12195 1.1H6.76098C6.76098 1.1 6.75203 1.1 6.73415 1.1C6.59106 1.1 6.46585 1.04634 6.35854 0.939024C6.25122 0.831707 6.19756 0.706504 6.19756 0.563415C6.19756 0.420325 6.24675 0.295122 6.34512 0.187804C6.4435 0.0804873 6.56423 0.0178862 6.70732 0Z" fill="white"/>
</svg>
