<svg width="16" height="16" viewBox="0 0 16 16" fill="none" xmlns="http://www.w3.org/2000/svg">
<path d="M7.99771 13C8.27701 13 8.51389 12.9035 8.70833 12.7106C8.90278 12.5178 9 12.2817 9 12.0023C9 11.723 8.90354 11.4861 8.71062 11.2917C8.51785 11.0972 8.28174 11 8.00229 11C7.72299 11 7.48611 11.0965 7.29167 11.2894C7.09722 11.4822 7 11.7183 7 11.9977C7 12.277 7.09646 12.5139 7.28938 12.7083C7.48215 12.9028 7.71826 13 7.99771 13ZM8.00583 16C6.90472 16 5.86806 15.7917 4.89583 15.375C3.92361 14.9583 3.07292 14.3854 2.34375 13.6562C1.61458 12.9271 1.04167 12.0767 0.625 11.105C0.208333 10.1333 0 9.09514 0 7.99042C0 6.88569 0.208333 5.85069 0.625 4.88542C1.04167 3.92014 1.61458 3.07292 2.34375 2.34375C3.07292 1.61458 3.92333 1.04167 4.895 0.625C5.86667 0.208333 6.90486 0 8.00958 0C9.11431 0 10.1493 0.208333 11.1146 0.625C12.0799 1.04167 12.9271 1.61458 13.6562 2.34375C14.3854 3.07292 14.9583 3.92167 15.375 4.89C15.7917 5.85847 16 6.89319 16 7.99417C16 9.09528 15.7917 10.1319 15.375 11.1042C14.9583 12.0764 14.3854 12.9271 13.6562 13.6562C12.9271 14.3854 12.0783 14.9583 11.11 15.375C10.1415 15.7917 9.10681 16 8.00583 16ZM8 14.5C9.80556 14.5 11.3403 13.8681 12.6042 12.6042C13.8681 11.3403 14.5 9.80556 14.5 8C14.5 6.19444 13.8681 4.65972 12.6042 3.39583C11.3403 2.13194 9.80556 1.5 8 1.5C6.19444 1.5 4.65972 2.13194 3.39583 3.39583C2.13194 4.65972 1.5 6.19444 1.5 8C1.5 9.80556 2.13194 11.3403 3.39583 12.6042C4.65972 13.8681 6.19444 14.5 8 14.5ZM8.06729 4.41667C8.41882 4.41667 8.72465 4.52924 8.98479 4.75438C9.24493 4.97938 9.375 5.26069 9.375 5.59833C9.375 5.90778 9.28472 6.18056 9.10417 6.41667C8.92361 6.65278 8.71528 6.86806 8.47917 7.0625C8.15972 7.34028 7.875 7.65278 7.625 8C7.375 8.34722 7.25694 8.73611 7.27083 9.16667C7.27083 9.36111 7.34083 9.51736 7.48083 9.63542C7.62083 9.75347 7.78417 9.8125 7.97083 9.8125C8.17083 9.8125 8.34028 9.75347 8.47917 9.63542C8.61806 9.51736 8.70833 9.36111 8.75 9.16667C8.81944 8.86111 8.95139 8.59139 9.14583 8.3575C9.34028 8.12347 9.54861 7.90014 9.77083 7.6875C10.0903 7.38194 10.3507 7.04167 10.5521 6.66667C10.7535 6.29167 10.8542 5.88889 10.8542 5.45833C10.8542 4.75 10.5799 4.16319 10.0312 3.69792C9.48264 3.23264 8.83049 3 8.07479 3C7.55271 3 7.05903 3.11458 6.59375 3.34375C6.12847 3.57292 5.75583 3.9116 5.47583 4.35979C5.36694 4.52271 5.33681 4.70139 5.38542 4.89583C5.43403 5.09028 5.54861 5.22917 5.72917 5.3125C5.92361 5.40972 6.11806 5.43056 6.3125 5.375C6.50694 5.31944 6.66667 5.21528 6.79167 5.0625C6.94444 4.86806 7.13194 4.71181 7.35417 4.59375C7.57639 4.47569 7.8141 4.41667 8.06729 4.41667Z" fill="white"/>
</svg>
